<svg xmlns="http://www.w3.org/2000/svg" viewBox="0 0 95 95">
    <path fill-rule="evenodd" fill="#fff" d="M64.748,63.125a84.879,84.879,0,0,1-1.664,8.389c1.86.464,3.652.826,5.359,1.081,8.02,1.2,14.055.078,16.2-3.646s.106-9.513-4.94-15.857c-1.075-1.351-2.285-2.723-3.617-4.1a84.6,84.6,0,0,1-6.433,5.636,5.891,5.891,0,0,1-4.909,8.5Zm3.646-10.188a5.872,5.872,0,0,0-2.6-1.409q.027-.751.044-1.538.03-1.415.03-2.49c0-2.58-.087-5.109-.253-7.57A86.452,86.452,0,0,1,74.6,47.5c-1.869,1.818-3.947,3.64-6.209,5.438Zm-4.7-1.538a5.894,5.894,0,0,0-4.72,8.175q-.616.386-1.235.761-1.029.624-2.1,1.241l-.01.006c-2.724,1.573-5.445,2.992-8.129,4.253-2.684-1.261-5.406-2.681-8.132-4.255s-5.31-3.217-7.743-4.909c-.249-2.955-.38-6.023-.38-9.171q0-1.412.023-2.449.015-.714.041-1.45a5.891,5.891,0,0,0,4.719-8.175c.413-.257.824-.511,1.237-.761q1.028-.624,2.1-1.241l.01-.005c2.724-1.573,5.446-2.993,8.129-4.254,2.684,1.262,5.406,2.681,8.132,4.255s5.31,3.218,7.743,4.91c.249,2.954.38,6.023.38,9.17q0,1.413-.022,2.449-.016.714-.042,1.45Zm-3.557,9.925q-.644.4-1.31.807-1.065.646-2.146,1.27h0c-2.234,1.29-4.468,2.479-6.682,3.565a86.489,86.489,0,0,0,11.057,4.006c.64-2.528,1.179-5.238,1.6-8.094a5.889,5.889,0,0,1-2.438-1.468l-.085-.087Zm6.921-6.749a3.779,3.779,0,1,1-2.672-1.107,3.764,3.764,0,0,1,2.672,1.107Zm-32.189-20.9q.645-.4,1.311-.807,1.064-.646,2.145-1.27h0c2.234-1.29,4.468-2.479,6.682-3.565a86.326,86.326,0,0,0-11.057-4.005c-.64,2.527-1.179,5.237-1.6,8.093a5.9,5.9,0,0,1,2.438,1.468l.085.087Zm-4.614-1.8a84.879,84.879,0,0,1,1.664-8.389c-1.86-.464-3.652-.826-5.359-1.081-8.019-1.2-14.054-.078-16.2,3.646s-.106,9.513,4.94,15.857c1.075,1.352,2.285,2.723,3.617,4.1a84.373,84.373,0,0,1,6.433-5.635,5.891,5.891,0,0,1,4.909-8.5ZM26.606,42.064a5.881,5.881,0,0,0,2.6,1.408q-.027.753-.044,1.538c-.02.943-.031,1.775-.031,2.49,0,2.58.087,5.109.254,7.57A86.572,86.572,0,0,1,20.4,47.5c1.87-1.818,3.948-3.64,6.21-5.437ZM33.29,35.08A3.779,3.779,0,1,0,34.4,37.753,3.771,3.771,0,0,0,33.29,35.08ZM62.537,73.546a49.456,49.456,0,0,1-4.121,10.345C55.4,89.313,51.641,92.5,47.5,92.5c-5.257,0-9.924-5.176-13.22-13.543-.661-1.677-1.269-3.487-1.818-5.411-1.943.488-3.816.867-5.6,1.133C17.973,76.008,11.16,74.553,8.532,70c-2.071-3.587-1.193-8.438,1.995-13.758a49.4,49.4,0,0,1,6.9-8.742c-1.393-1.439-2.657-2.871-3.78-4.282C8.05,36.184,5.9,29.557,8.532,25s9.442-6.012,18.329-4.683c1.785.266,3.659.645,5.6,1.133A49.424,49.424,0,0,1,36.584,11.11C39.6,5.687,43.36,2.5,47.5,2.5c5.257,0,9.925,5.175,13.22,13.543.661,1.677,1.269,3.487,1.818,5.411,1.943-.488,3.816-.867,5.6-1.133,8.888-1.329,15.7.126,18.329,4.679,2.071,3.588,1.193,8.438-2,13.758a49.4,49.4,0,0,1-6.9,8.742c1.393,1.439,2.657,2.871,3.78,4.282C86.95,58.816,89.1,65.443,86.468,70s-9.442,6.012-18.33,4.683c-1.784-.266-3.658-.645-5.6-1.133ZM18.911,48.989a47.132,47.132,0,0,0-6.58,8.333C9.544,61.973,8.7,66.083,10.353,68.945c2.151,3.726,8.186,4.848,16.2,3.65,1.708-.255,3.5-.616,5.359-1.081a90.427,90.427,0,0,1-2.3-13.692,90.533,90.533,0,0,1-10.7-8.833ZM31.892,59.4a86.578,86.578,0,0,0,2.057,11.576,86.411,86.411,0,0,0,11.056-4c-2.215-1.086-4.449-2.275-6.683-3.566s-4.382-2.63-6.43-4.005ZM47.5,68.151A90.542,90.542,0,0,0,60.506,73a47.22,47.22,0,0,1-3.928,9.865c-2.633,4.737-5.77,7.522-9.078,7.522-4.3,0-8.29-4.663-11.259-12.2C35.607,76.583,35.024,74.849,34.5,73a90.522,90.522,0,0,0,13-4.853ZM34.494,22a47.22,47.22,0,0,1,3.928-9.865C41.055,7.394,44.192,4.61,47.5,4.61c4.3,0,8.29,4.662,11.259,12.2.634,1.608,1.217,3.342,1.745,5.187a90.522,90.522,0,0,0-13,4.853A90.542,90.542,0,0,0,34.494,22ZM50,28.033c2.214,1.086,4.449,2.276,6.683,3.566s4.382,2.63,6.43,4a86.549,86.549,0,0,0-2.057-11.576A86.411,86.411,0,0,0,50,28.033Zm15.393,9.145a90.533,90.533,0,0,1,10.7,8.833,47.178,47.178,0,0,0,6.58-8.333c2.787-4.651,3.631-8.761,1.978-11.623-2.151-3.726-8.186-4.848-16.2-3.65-1.707.255-3.5.617-5.358,1.081A90.427,90.427,0,0,1,65.388,37.178Z"/>
</svg>
