<svg xmlns="http://www.w3.org/2000/svg" xmlns:xlink="http://www.w3.org/1999/xlink" version="1.1" x="0px" y="0px"
     viewBox="0 0 100 100" style="enable-background:new 0 0 100 100;" xml:space="preserve">
    <g fill="#fff">
        <path d="M69.2,50.5H30.6c-0.5,0-1-0.3-1.3-0.8c-0.3-0.5-0.3-1,0-1.5l19.3-33.4c0.3-0.5,0.8-0.7,1.3-0.7s1,0.3,1.3,0.7l19.3,33.4  c0.3,0.5,0.3,1,0,1.5C70.2,50.2,69.7,50.5,69.2,50.5z M33.2,47.5h33.4L49.9,18.6L33.2,47.5z"/>
        <path d="M81.9,85.9H51.8c-0.8,0-1.5-0.7-1.5-1.5V54.3c0-0.8,0.7-1.5,1.5-1.5h30.1c0.8,0,1.5,0.7,1.5,1.5v30.1  C83.4,85.2,82.7,85.9,81.9,85.9z M53.3,82.9h27.1V55.8H53.3V82.9z"/>
        <path d="M30.6,85.8c-9.1,0-16.5-7.4-16.5-16.5s7.4-16.5,16.5-16.5s16.5,7.4,16.5,16.5S39.7,85.8,30.6,85.8z M30.6,55.8  c-7.4,0-13.5,6.1-13.5,13.5s6.1,13.5,13.5,13.5s13.5-6.1,13.5-13.5S38,55.8,30.6,55.8z"/>
    </g>
</svg>
