<svg xmlns="http://www.w3.org/2000/svg" xmlns:xlink="http://www.w3.org/1999/xlink" version="1.1" x="0px" y="0px"
     viewBox="0 0 100 100" enable-background="new 0 0 100 100" xml:space="preserve">
    <path fill="#fff" d="M81.8,40.9c-3.6,0-6.5,2.9-6.5,6.5c0,0,0,0,0,0L63,48.9c-0.3-3.7-2-7-4.5-9.5L70,25.8c1,0.6,2.1,0.9,3.3,0.9  c3.6,0,6.5-2.9,6.5-6.5s-2.9-6.5-6.5-6.5s-6.5,2.9-6.5,6.5c0,2,0.9,3.8,2.4,5L57.7,38.8c-2.6-2.2-6-3.6-9.7-3.6  c-3.2,0-6.3,1-8.7,2.8l-6.7-8c1-1.1,1.6-2.6,1.6-4.3c0-3.6-2.9-6.5-6.5-6.5s-6.5,2.9-6.5,6.5s2.9,6.5,6.5,6.5c1.6,0,3-0.6,4.1-1.5  l6.6,7.9c-3.3,2.8-5.5,6.9-5.5,11.6c0,0.8,0.1,1.6,0.2,2.3l-11,1.4C22,50.6,19.2,48,15.8,48c-3.6,0-6.5,2.9-6.5,6.5s2.9,6.5,6.5,6.5  c3.4,0,6.2-2.7,6.5-6.1l11.2-1.5c0.8,3.5,2.8,6.6,5.6,8.7l-8.9,12c-1.1-0.9-2.6-1.5-4.1-1.5c-3.6,0-6.5,2.9-6.5,6.5s2.9,6.5,6.5,6.5  s6.5-2.9,6.5-6.5c0-1.6-0.6-3.1-1.6-4.3l9-12.1c2.4,1.5,5.2,2.4,8.2,2.4c4.7,0,8.9-2.2,11.6-5.5l11.7,9c-1,1.1-1.6,2.7-1.6,4.3  c0,3.6,2.9,6.5,6.5,6.5s6.5-2.9,6.5-6.5s-2.9-6.5-6.5-6.5c-1.6,0-3,0.6-4.1,1.5l-11.8-9.1c1.7-2.4,2.8-5.4,2.8-8.7  c0-0.1,0-0.2,0-0.3l12.4-1.5c0.5,3.1,3.2,5.5,6.4,5.5c3.6,0,6.5-2.9,6.5-6.5S85.4,40.9,81.8,40.9z M67.8,20.2c0-3,2.5-5.5,5.5-5.5  s5.5,2.5,5.5,5.5s-2.5,5.5-5.5,5.5S67.8,23.2,67.8,20.2z M22.3,25.7c0-3,2.5-5.5,5.5-5.5s5.5,2.5,5.5,5.5s-2.5,5.5-5.5,5.5  S22.3,28.7,22.3,25.7z M15.8,60c-3,0-5.5-2.5-5.5-5.5s2.5-5.5,5.5-5.5s5.5,2.5,5.5,5.5S18.8,60,15.8,60z M26,84.7  c-3,0-5.5-2.5-5.5-5.5s2.5-5.5,5.5-5.5s5.5,2.5,5.5,5.5S29,84.7,26,84.7z M81.8,73c0,3-2.5,5.5-5.5,5.5S70.8,76,70.8,73  s2.5-5.5,5.5-5.5S81.8,69.9,81.8,73z M48.1,64.2c-7.7,0-14-6.3-14-14s6.3-14,14-14s14,6.3,14,14S55.8,64.2,48.1,64.2z M81.8,52.9  c-3,0-5.5-2.5-5.5-5.5s2.5-5.5,5.5-5.5s5.5,2.5,5.5,5.5S84.9,52.9,81.8,52.9z"/>
</svg>
