<svg xmlns="http://www.w3.org/2000/svg" xmlns:xlink="http://www.w3.org/1999/xlink" version="1.1" x="0px" y="0px"
     viewBox="0 0 100 100" style="enable-background:new 0 0 100 100;" xml:space="preserve">
    <path fill="#fff" d="M69.76,45.04C69.41,44.4,68.73,44,68,44H56V20c0-0.89-0.58-1.67-1.43-1.92c-0.85-0.25-1.77,0.09-2.25,0.83l-22,34  c-0.4,0.62-0.43,1.4-0.08,2.04C30.59,55.6,31.27,56,32,56h12v24c0,0.89,0.58,1.67,1.43,1.92C45.62,81.97,45.81,82,46,82  c0.67,0,1.3-0.33,1.68-0.91l22-34C70.08,46.47,70.11,45.69,69.76,45.04z M48,73.23V54c0-1.11-0.89-2-2-2H35.68L52,26.77V46  c0,1.11,0.89,2,2,2h10.32L48,73.23z"/>
</svg>
