<svg version="1.1" xmlns="http://www.w3.org/2000/svg" xmlns:xlink="http://www.w3.org/1999/xlink" x="0px" y="0px"
     viewBox="0 0 100 100" enable-background="new 0 0 100.001 100" xml:space="preserve">
    <g fill="#fff">
        <circle cx="11.468" cy="11.469" r="11.469"/>
        <circle cx="11.468" cy="37.156" r="11.468"/>
        <circle cx="11.468" cy="62.843" r="11.469"/>
        <circle cx="11.469" cy="88.531" r="11.469"/>
        <circle cx="37.156" cy="11.468" r="11.469"/>
        <circle cx="37.157" cy="37.156" r="11.468"/>
        <circle cx="37.157" cy="62.843" r="11.469"/>
        <circle cx="37.156" cy="88.531" r="11.469"/>
        <circle cx="62.845" cy="11.468" r="11.47"/>
        <circle cx="62.846" cy="37.156" r="11.468"/>
        <path d="M62.846,51.398c-6.312,0-11.443,5.137-11.443,11.444c0,6.312,5.133,11.443,11.443,11.443
	c6.309,0,11.441-5.134,11.441-11.443C74.287,56.535,69.154,51.398,62.846,51.398z M62.846,71.286c-4.656,0-8.443-3.788-8.443-8.443
	c-0.002-4.655,3.787-8.444,8.443-8.444c4.654,0,8.441,3.789,8.441,8.444S67.5,71.286,62.846,71.286z"/>
        <circle cx="62.845" cy="88.531" r="11.47"/>
        <circle cx="88.532" cy="11.469" r="11.469"/>
        <circle cx="88.532" cy="37.156" r="11.468"/>
        <circle cx="88.532" cy="62.843" r="11.469"/>
        <circle cx="88.532" cy="88.532" r="11.468"/>
    </g>
</svg>
