<?xml version="1.0" encoding="utf-8"?>
<!-- Generator: Adobe Illustrator 25.4.1, SVG Export Plug-In . SVG Version: 6.00 Build 0)  -->
<svg version="1.1" id="Layer_1" xmlns:serif="http://www.serif.com/"
	 xmlns="http://www.w3.org/2000/svg" xmlns:xlink="http://www.w3.org/1999/xlink" x="0px" y="0px" viewBox="0 0 800 800"
	 style="enable-background:new 0 0 800 800;" xml:space="preserve">
<style type="text/css">
	.st0{fill:#030404;}
</style>
<g transform="matrix(1.01619,0,0,1.01619,44,43.8384)">
	<path d="M350.3,31.5c-86.6,0-97.5,0.4-131.5,1.9c-33.9,1.5-57.1,6.9-77.4,14.8c-21,8.2-38.8,19.1-56.5,36.8s-28.6,35.5-36.8,56.5
		C40.2,161.8,34.8,185,33.3,219c-1.6,34-1.9,44.9-1.9,131.5c0,86.6,0.4,97.5,1.9,131.5c1.5,33.9,6.9,57.1,14.8,77.4
		c8.2,21,19.1,38.8,36.8,56.5c17.7,17.7,35.5,28.6,56.5,36.8c20.3,7.9,43.5,13.3,77.4,14.8c34,1.6,44.9,1.9,131.5,1.9
		c86.6,0,97.5-0.4,131.5-1.9c33.9-1.5,57.1-6.9,77.4-14.8c21-8.2,38.8-19.1,56.5-36.8c17.7-17.7,28.6-35.5,36.8-56.5
		c7.9-20.3,13.3-43.5,14.8-77.4c1.6-34,1.9-44.9,1.9-131.5c0-86.6-0.4-97.5-1.9-131.5c-1.5-33.9-6.9-57.1-14.8-77.4
		c-8.2-21-19.1-38.8-36.8-56.5c-17.7-17.7-35.5-28.6-56.5-36.8C539,40.4,515.8,35,481.8,33.4C447.8,31.9,437,31.5,350.3,31.5z
		 M350.3,89c85.2,0,95.3,0.3,128.9,1.9c31.1,1.4,48,6.6,59.2,11c14.9,5.8,25.5,12.7,36.7,23.9c11.2,11.2,18.1,21.8,23.9,36.7
		c4.4,11.2,9.6,28.1,11,59.2c1.5,33.6,1.9,43.7,1.9,128.9c0,85.2-0.3,95.3-1.9,128.9c-1.4,31.1-6.6,48-11,59.2
		c-5.8,14.9-12.7,25.5-23.9,36.7c-11.2,11.2-21.8,18.1-36.7,23.9c-11.2,4.4-28.1,9.6-59.2,11c-33.6,1.5-43.7,1.9-128.9,1.9
		c-85.2,0-95.3-0.3-128.9-1.9c-31.1-1.4-48-6.6-59.2-11c-14.9-5.8-25.5-12.7-36.7-23.9c-11.2-11.2-18.1-21.8-23.9-36.7
		c-4.4-11.2-9.6-28.1-11-59.2c-1.5-33.6-1.9-43.7-1.9-128.9c0-85.2,0.3-95.3,1.9-128.9c1.4-31.1,6.6-48,11-59.2
		c5.8-14.9,12.7-25.5,23.9-36.7c11.2-11.2,21.8-18.1,36.7-23.9c11.2-4.4,28.1-9.6,59.2-11C255.1,89.3,265.2,89,350.3,89z"/>
	<path class="st0" d="M350.3,456.8c-58.7,0-106.3-47.6-106.3-106.3c0-58.7,47.6-106.3,106.3-106.3c58.7,0,106.3,47.6,106.3,106.3
		C456.6,409.2,409,456.8,350.3,456.8z M350.3,186.7c-90.5,0-163.8,73.3-163.8,163.8c0,90.5,73.3,163.8,163.8,163.8
		c90.5,0,163.8-73.3,163.8-163.8C514.1,260,440.8,186.7,350.3,186.7z"/>
	<path class="st0" d="M558.9,180.2c0,21.1-17.1,38.3-38.3,38.3c-21.1,0-38.3-17.1-38.3-38.3s17.1-38.3,38.3-38.3
		C541.7,142,558.9,159.1,558.9,180.2z"/>
</g>
</svg>
