<?xml version="1.0" encoding="utf-8"?>
<!-- Generator: Adobe Illustrator 25.4.1, SVG Export Plug-In . SVG Version: 6.00 Build 0)  -->
<svg version="1.1" id="Layer_1" xmlns:serif="http://www.serif.com/"
	 xmlns="http://www.w3.org/2000/svg" xmlns:xlink="http://www.w3.org/1999/xlink" x="0px" y="0px" viewBox="0 0 800 800"
	 style="enable-background:new 0 0 800 800;" xml:space="preserve">
<g>
	<g transform="matrix(1,0,0,1,-246.226,-1.33631)">
		<path d="M688.9,401.3c0,104.4-84,189-187.7,189s-187.7-84.6-187.7-189s84-189,187.7-189S688.9,297,688.9,401.3"/>
	</g>
	<g transform="matrix(1,0,0,1,-246.226,-1.33631)">
		<path d="M894.8,401.3c0,98.3-42,177.9-93.9,177.9s-93.9-79.7-93.9-177.9s42-177.9,93.9-177.9C852.8,223.4,894.8,303.1,894.8,401.3
			"/>
	</g>
	<g transform="matrix(1,0,0,1,-246.226,-1.33631)">
		<path d="M979,401.3c0,88-14.8,159.4-33,159.4s-33-71.4-33-159.4s14.8-159.4,33-159.4C964.2,241.9,979,313.3,979,401.3"/>
	</g>
</g>
</svg>
