<?xml version="1.0" encoding="utf-8"?>
<!-- Generator: Adobe Illustrator 25.4.1, SVG Export Plug-In . SVG Version: 6.00 Build 0)  -->
<svg version="1.1" id="Layer_1" xmlns:serif="http://www.serif.com/"
	 xmlns="http://www.w3.org/2000/svg" xmlns:xlink="http://www.w3.org/1999/xlink" x="0px" y="0px" viewBox="0 0 800 800"
	 style="enable-background:new 0 0 800 800;" xml:space="preserve">
<path d="M680.4,326.7c-21.5,0-40.4,8.2-54.3,22.1c-53.7-38.5-128.2-63.8-210.3-66.9l36-168.6l116.8,24.6
	c1.3,29.7,25.9,53.7,56.2,53.7c30.9,0,56.2-25.3,56.2-56.2c0-30.9-25.3-56.2-56.2-56.2c-22.1,0-41.1,12.6-49.9,31.6L444.2,82.9
	c-3.8-0.6-7.6,0-10.7,1.9s-5.1,5.1-6.3,8.8l-39.8,188.2c-84,2.5-159.2,27.2-213.5,66.9c-13.9-13.3-33.5-22.1-54.3-22.1
	c-43.6,0-78.9,35.4-78.9,78.9c0,32.2,18.9,59.4,46.7,72c-1.3,7.6-1.9,15.8-1.9,24c0,121.3,140.8,219.2,315.2,219.2
	c174.3,0,315.2-97.9,315.2-219.2c0-8.2-0.6-15.8-1.9-23.4c25.9-12.6,45.5-40.4,45.5-72.6C759.4,362.1,724,326.7,680.4,326.7z
	 M217.4,470.7c0-30.9,25.3-56.2,56.2-56.2c30.9,0,56.2,25.3,56.2,56.2c0,30.9-25.3,56.2-56.2,56.2
	C242.7,526.9,217.4,501.7,217.4,470.7z M531.3,619.1L531.3,619.1c-38.5,38.5-111.8,41.1-133.3,41.1c-21.5,0-95.4-3.2-133.3-41.1
	c-5.7-5.7-5.7-15.2,0-20.8c5.7-5.7,15.2-5.7,20.8,0c24,24,75.8,32.8,113.1,32.8c37.3,0,88.4-8.8,113.1-32.8c5.7-5.7,15.2-5.7,20.8,0
	C537,604.6,537,613.5,531.3,619.1z M521.2,526.9c-30.9,0-56.2-25.3-56.2-56.2c0-30.9,25.3-56.2,56.2-56.2
	c30.9,0,56.2,25.3,56.2,56.2C577.4,501.7,552.2,526.9,521.2,526.9z"/>
</svg>
