<?xml version="1.0" encoding="utf-8"?>
<!-- Generator: Adobe Illustrator 25.4.1, SVG Export Plug-In . SVG Version: 6.00 Build 0)  -->
<svg version="1.1" id="Layer_1" xmlns:serif="http://www.serif.com/"
	 xmlns="http://www.w3.org/2000/svg" xmlns:xlink="http://www.w3.org/1999/xlink" x="0px" y="0px" viewBox="0 0 800 800"
	 style="enable-background:new 0 0 800 800;" xml:space="preserve">
<path d="M276,671.5c252.2,0,390.2-209,390.2-390.2c0-5.9,0-11.8-0.4-17.7c26.8-19.4,50-43.4,68.4-71c-25,11.1-51.6,18.4-78.8,21.6
	c28.6-17.1,50.1-44.1,60.3-75.8c-26.9,16-56.4,27.2-87.1,33.3c-25.9-27.6-62.1-43.2-100-43.2c-75.3,0-137.3,62-137.3,137.3
	c0,10.4,1.2,20.9,3.6,31c-110.2-5.5-213-57.6-282.6-143.3c-36.2,62.3-17.5,143,42.5,183.1c-21.8-0.6-43.2-6.5-62.2-17.2v1.7
	c0,65,46.3,121.5,110,134.4c-20.2,5.5-41.4,6.3-61.9,2.4c17.9,55.7,69.6,94.1,128.1,95.2c-48.5,38.2-108.6,58.9-170.3,58.8
	c-10.9,0-21.8-0.7-32.6-2c62.7,40.2,135.7,61.6,210.2,61.5"/>
</svg>
