<?xml version="1.0" encoding="utf-8"?>
<!-- Generator: Adobe Illustrator 25.4.1, SVG Export Plug-In . SVG Version: 6.00 Build 0)  -->
<svg version="1.1" id="Layer_1" xmlns:serif="http://www.serif.com/"
	 xmlns="http://www.w3.org/2000/svg" xmlns:xlink="http://www.w3.org/1999/xlink" x="0px" y="0px" viewBox="0 0 800 800"
	 style="enable-background:new 0 0 800 800;" xml:space="preserve">
<path d="M714.1,242.2c-7.5-28.2-29.7-50.4-58-58C605,170.6,400,170.6,400,170.6s-205,0-256.1,13.7c-28.2,7.5-50.4,29.7-58,58
	C72.2,293.3,72.2,400,72.2,400s0,106.7,13.7,157.8c7.5,28.2,29.8,50.4,58,58C195,629.4,400,629.4,400,629.4s205,0,256.1-13.7
	c28.2-7.5,50.4-29.8,58-58c13.7-51.1,13.7-157.8,13.7-157.8S727.8,293.3,714.1,242.2L714.1,242.2z M334.4,498.3V301.7L504.7,400
	L334.4,498.3L334.4,498.3z"/>
</svg>
